<?xml version="1.0" encoding="UTF-8" standalone="no"?>
<svg xmlns="http://www.w3.org/2000/svg" xmlns:xlink="http://www.w3.org/1999/xlink" xml:space="preserve" viewBox="0 0 137 138" height="63" width="63" style="color:currentColor">
  <defs>
    <radialGradient xlink:href="#a" id="b" cx="137.787" cy="131.799" r="95.617996" fx="137.787" fy="131.799" gradientTransform="matrix(.80502 0 0 .80091 26.866384 26.239502)" gradientUnits="userSpaceOnUse"/>
    <linearGradient id="a">
      <stop offset="0" stop-color="#1d7f6f"/>
      <stop offset="1" stop-color="#54d8c3"/>
    </linearGradient>
  </defs>
  <g transform="matrix(.5 0 0 .5 -.00015919 .50007)">
    <path fill="#000063" d="M215.74 218.47c-.969-5.419-8.424-5.467-10.967-1.434-2.757 4.373-5.689 9.288-11.639 8.338-2.985-.478-5.503-1.498-7.44-3.155-.041-.086-.086-.166-.125-.255-.559-1.267-1.352-2.104-2.256-2.594-.647-1.104-1.148-2.365-1.486-3.799-1.775-7.531-13.346-4.337-11.572 3.189.997 4.23 2.969 7.78 5.638 10.628 9.37 16.91 43.64 10.24 39.86-10.92z"/>
    <path fill="#3ca39c" d="M78.661 213.83c-1.128 3.971-3.03 8.908-6.502 11.424-4.652 3.371-9.138-4.626-10.333-7.945-2.6-7.225-14.198-4.109-11.571 3.189 3.444 9.571 10.855 18.444 22.018 17.159 9.883-1.138 15.525-12.066 17.959-20.638 2.119-7.45-9.461-10.61-11.571-3.18z"/>
    <path fill="url(#b)" d="m87.822 224.46 45.79-79.311 47.943 83.041c30.793-16.949 51.85-51.221 51.85-90.742 0-56.355-42.81-102.04-95.618-102.04-52.808 0-95.618 45.685-95.618 102.04.007 36.8 18.275 69.06 45.66 87.01z"/>
    <path fill="#54d8c3" stroke="#000" d="M55.825001 256.76199h157.367v11.795h-157.367z"/>
    <path fill="#6b2900" d="M147.83 186.62c-2.967 0-1.599-.365-7.359-1.719-7.19-1.688-15.81-.291-31.262-2.614-2.752-.413-3.327-1.881-4.972-4.43-10.215-15.828-3.651-43.318-2.515-49.707 2.999-16.872 18.993-22.651 36.062-21.21 9.173.78 19.255 3.633 27.08 13.69 10.321 13.265 12.23 29.73 9.74 44.819l-4.708-.785c2.133-12.927 2.156-27.14-6.819-38.676-6.365-8.18-15.248-14.258-25.638-14.439-15.576-.271-26.914 6.724-29.135 19.218-3.082 17.333-3.568 36.567.588 42.498.693.988 1.263 1.074 1.506 1.111 15.774 2.371 26.831 4.968 34.147 6.687 4.655 1.094 4.687-5.573 6.449-5.625.26-1.469 4.461 2.684 4.284-.772-.203-3.947-2.528-15.102-2.528-15.102 0-6.058 4.219-16.065-.323-23.379-2.725-4.387-4.598-10.743-14.645-13.382-6.972-1.832-11.592-2.248-20.055 6.214l-3.737 5.578.835-5.578c2.739-6.492 9.124-11.453 18.944-11.152 10.68 1.245 16.987 6.41 22.49 14.323 5.726 8.233 3.275 23.366 3.275 29.181.011 5.859 3.537 9.112 3.731 12.887.412 8.037-4.519 5.132-7.771 7.847-1.437 1.199-1.379 1.779-3.555 1.779l-4.09 2.73z"/>
    <path fill="none" stroke="#00086b" stroke-width="5" d="M50.109 219.93c-9.709 14.25-34.658-15.41-17.748-22.02"/>
    <path fill="#54d8c3" stroke="#000" d="M29.911 196.55c15.111-9.935 28.237-17.554 28.237-17.554l12.394 6.236 3.334 13.278-23.063 24.186c-12.272 3.88-28.188-11.3-20.902-26.16z"/>
    <path fill="none" stroke="#754c24" stroke-linecap="round" stroke-width="4" d="M55.779 197.13c2.119-1.735 4.486-3.353 6.669-5.112"/>
    <path fill="#754c24" d="m50.6306647 210.525324-9.982772-1.072272 1.072272-9.982772 9.982772 1.072272zM47.455 192.07c2.416-1.946 5.948.536 9.16 4.521 3.212 3.986 4.888 7.965 2.472 9.912-2.415 1.946-5.816-7.216-5.816-7.216s-8.231-5.27-5.816-7.21z"/>
    <path fill="#f7931e" d="M40.92 195.07c4.743-3.822 9.665-1.449 13.487 3.294 3.822 4.742 5.097 10.057.354 13.879-4.742 3.823-6.921-8.587-6.921-8.587s-11.662-4.75-6.92-8.58z"/>
    <path fill="none" stroke="#00086b" stroke-width="5" d="M30.658 192.42c-13.274 11-29.035-24.409-10.956-26.074"/>
    <path fill="#54d8c3" stroke="#000" d="M17.725 164.36c17.271-5.36 31.994-9.047 31.994-9.047l10.182 9.424-.473 13.683-28.858 16.854c-12.872.36-23.962-18.64-12.845-30.9z"/>
    <path fill="none" stroke="#754c24" stroke-linecap="round" stroke-width="4" d="M42.42 172.08c2.517-1.081 5.239-1.979 7.824-3.065"/>
    <path fill="#754c24" d="m33.76629807 183.52969262-9.295032-3.79512 3.794742-9.2941062 9.295032 3.79512zM35.825 164.91c2.86-1.201 5.566 2.162 7.55 6.881 1.983 4.72 2.491 9.007-.369 10.209-2.859 1.201-3.59-8.544-3.59-8.544s-6.451-7.35-3.591-8.55z"/>
    <path fill="#f7931e" d="M28.713 165.99c5.616-2.359 9.688 1.283 12.047 6.899 2.36 5.615 2.113 11.075-3.502 13.435-5.616 2.36-4.272-10.168-4.272-10.168s-9.888-7.8-4.273-10.16z"/>
    <path fill="none" stroke="#00086b" stroke-width="5" d="M19.586 160.6c-15.802 6.894-21.14-31.496-3.307-28.089"/>
    <path fill="#54d8c3" stroke="#000" d="M14.931 130.05c18.081-.368 33.248.167 33.248.167l7.173 11.875-4.244 13.017-32.397 8.202c-12.462-3.24-17.859-24.56-3.78-33.27z"/>
    <path fill="none" stroke="#754c24" stroke-linecap="round" stroke-width="4" d="M36.521 144.31c2.718-.342 5.582-.452 8.367-.779"/>
    <path fill="#754c24" d="m25.0336404 152.9163531-7.880396-6.220784 6.2201644-7.8796111 7.880396 6.220784zM32.17 135.59c3.081-.362 4.75 3.62 5.349 8.703.599 5.084-.1 9.345-3.182 9.707-3.08.363-1.084-9.203-1.084-9.203s-4.164-8.84-1.083-9.21z"/>
    <path fill="#f7931e" d="M25.037 134.66c6.049-.712 8.954 3.917 9.665 9.966.712 6.049-1.037 11.227-7.086 11.938-6.05.713-1.29-10.953-1.29-10.953s-7.338-10.24-1.289-10.96z"/>
    <path fill="none" stroke="#00086b" stroke-width="5" d="M17.759 126.96C.667 129.2 6.168 90.838 22.361 99.05"/>
    <path fill="#54d8c3" stroke="#000" d="M21.746 96.313c17.475 4.654 31.901 9.368 31.901 9.368l3.604 13.397-7.683 11.332-33.401-1.09c-11.08-6.56-10.359-28.54 5.579-33.007z"/>
    <path fill="none" stroke="#754c24" stroke-linecap="round" stroke-width="4" d="M38.542 116c2.706.424 5.489 1.111 8.256 1.568"/>
    <path fill="#754c24" d="m25.11968828 121.08518121-5.849304-8.159508 8.159508-5.849304 5.849304 8.159508zM36.776 106.41c3.061.505 3.562 4.793 2.729 9.843-.833 5.051-2.684 8.952-5.746 8.446-3.06-.504 1.507-9.144 1.507-9.144s-1.551-9.65 1.51-9.15z"/>
    <path fill="#f7931e" d="M30.181 103.54c6.01.991 7.519 6.243 6.527 12.253-.991 6.01-4.105 10.5-10.115 9.509-6.011-.99 1.794-10.882 1.794-10.882s-4.217-11.87 1.794-10.88z"/>
    <path fill="none" stroke="#00086b" stroke-width="5" d="M25.321 94.122c-17.047-2.573-1.135-37.915 12.15-25.541"/>
    <path fill="#54d8c3" stroke="#000" d="M37.638 65.781c15.503 9.311 28.06 17.836 28.06 17.836l-.247 13.871-10.521 8.761-31.792-10.298c-8.832-9.369-2.052-30.294 14.5-30.171z"/>
    <path fill="none" stroke="#754c24" stroke-linecap="round" stroke-width="4" d="M48.327 89.345c2.482 1.157 4.967 2.588 7.499 3.793"/>
    <path fill="#754c24" d="m34.02497367 90.51319166-3.361392-9.460692 9.460692-3.361392 3.361392 9.460692zM49.284 79.648c2.801 1.333 2.095 5.592-.103 10.214-2.199 4.623-5.058 7.858-7.86 6.525-2.801-1.332 3.98-8.369 3.98-8.369s1.181-9.703 3.983-8.37z"/>
    <path fill="#f7931e" d="M43.741 75.063c5.5 2.617 5.496 8.081 2.878 13.581-2.616 5.5-6.853 8.953-12.353 6.336-5.501-2.616 4.737-9.959 4.737-9.959s-.763-12.574 4.738-9.958z"/>
    <path fill="none" stroke="#00086b" stroke-width="5" d="M41.68 64.666c-15.667-7.193 9.409-36.747 18.748-21.177"/>
    <path fill="#54d8c3" stroke="#000" d="M61.364 40.844c12.318 13.24 22.023 24.909 22.023 24.909l-4.078 13.26-12.536 5.505L39.075 65.82c-5.891-11.448 6.419-29.677 22.289-24.976z"/>
    <path fill="none" stroke="#754c24" stroke-linecap="round" stroke-width="4" d="M65.109 66.447c2.065 1.799 4.056 3.863 6.155 5.722"/>
    <path fill="#754c24" d="m51.04380314 63.60724852-.610432-10.021928 10.021928-.610432.610432 10.021928zM68.714 57.394c2.322 2.057.464 5.953-2.928 9.786-3.394 3.833-7.037 6.15-9.359 4.093-2.323-2.055 6.142-6.939 6.142-6.939s3.822-8.997 6.145-6.94z"/>
    <path fill="#f7931e" d="M64.657 51.454c4.561 4.038 3.043 9.287-.995 13.847-4.037 4.561-9.064 6.705-13.624 2.668-4.562-4.038 7.31-8.258 7.31-8.258s2.749-12.295 7.309-8.257z"/>
    <path fill="none" stroke="#00086b" stroke-width="5" d="M65.557 40.892C52.494 29.641 84.774 8.188 89.436 25.735"/>
    <path fill="#54d8c3" stroke="#000" d="M91.067 23.453c8.17 16.133 14.264 30.034 14.264 30.034l-7.59 11.612-13.57 1.819L62.735 41.28c-2.491-12.632 14.386-26.739 28.333-17.827z"/>
    <path fill="none" stroke="#754c24" stroke-linecap="round" stroke-width="4" d="M87.576 49.091c1.486 2.301 2.828 4.835 4.33 7.203"/>
    <path fill="#754c24" d="m74.84167972 42.47282282 2.18872-9.798036 9.798036 2.18872-2.18872 9.798036zM93.547 41.391c1.662 2.619-1.203 5.849-5.523 8.593-4.322 2.743-8.464 3.961-10.127 1.341-1.663-2.618 7.824-4.967 7.824-4.967s6.163-7.587 7.826-4.967z"/>
    <path fill="#f7931e" d="M91.294 34.56c3.264 5.143.353 9.766-4.791 13.03-5.142 3.265-10.566 3.932-13.83-1.209-3.265-5.143 9.312-5.911 9.312-5.911s6.045-11.053 9.309-5.91z"/>
    <path fill="none" stroke="#00086b" stroke-width="5" d="M95.083 24.66c-9.436-14.428 27.522-26.103 27.143-7.951"/>
    <path fill="#54d8c3" stroke="#000" d="M124.42 14.968c3.383 17.765 5.389 32.81 5.389 32.81l-10.51 9.056-13.543-2.01-13.497-30.573c1.105-12.828 21.227-21.709 32.157-9.283z"/>
    <path fill="none" stroke="#754c24" stroke-linecap="round" stroke-width="4" d="M113.97 38.637c.791 2.622 1.378 5.429 2.166 8.12"/>
    <path fill="#754c24" d="m103.5653879 28.7483442 4.816188-8.809096 8.809096 4.816188-4.816188 8.809096zM121.84 32.891c.871 2.977-2.775 5.287-7.687 6.727-4.913 1.439-9.23 1.462-10.103-1.516-.873-2.976 8.894-2.606 8.894-2.606s8.03-5.582 8.9-2.605z"/>
    <path fill="#f7931e" d="M121.57 25.703c1.712 5.846-2.366 9.482-8.212 11.194-5.845 1.713-11.242.853-12.955-4.992-1.713-5.846 10.584-3.102 10.584-3.102s8.88-8.946 10.59-3.1z"/>
    <path fill="none" stroke="#00086b" stroke-width="5" d="M127.95 17.239c-5.071-16.477 33.674-17.46 28.283-.123"/>
    <path fill="#54d8c3" stroke="#000" d="M158.83 16.052c-1.669 18.007-3.907 33.019-3.907 33.019l-12.607 5.791-12.457-5.682-4.503-33.114c4.62-12.02 26.41-14.982 33.48-.014z"/>
    <path fill="none" stroke="#754c24" stroke-linecap="round" stroke-width="4" d="M142.23 35.9c.033 2.738-.18 5.598-.168 8.402"/>
    <path fill="#754c24" d="m134.97747069 23.5244369 7.068864-7.1311182 7.130408 7.06816-7.068864 7.1311182zM151.38 32.559c.013 3.102-4.131 4.312-9.249 4.335-5.12.022-9.274-1.151-9.288-4.254-.014-3.102 9.267-.042 9.267-.042s9.26-3.142 9.27-.039z"/>
    <path fill="#f7931e" d="M153.11 25.576c.026 6.091-4.898 8.456-10.99 8.482-6.091.028-11.039-2.294-11.066-8.384-.027-6.092 11.03-.049 11.03-.049s11-6.14 11.03-.049z"/>
    <path fill="none" stroke="#00086b" stroke-width="5" d="M161.59 19.211c-.31-17.236 37.192-7.452 27.211 7.714"/>
    <path fill="#54d8c3" stroke="#000" d="M191.59 26.622c-6.591 16.841-12.898 30.645-12.898 30.645l-13.719 2.073-10.396-8.91 4.843-33.065c7.77-10.273 29.53-7.083 32.18 9.257z"/>
    <path fill="none" stroke="#754c24" stroke-linecap="round" stroke-width="4" d="M170.14 41.096c-.727 2.641-1.723 5.329-2.488 8.027"/>
    <path fill="#754c24" d="m166.59317483 27.19294562 8.7667971-4.8949875 4.8945 8.765924-8.7667971 4.8949875zM179.86 40.42c-.847 2.984-5.163 3-10.088 1.604-4.926-1.396-8.593-3.675-7.746-6.66.845-2.984 8.916 2.527 8.916 2.527s9.76-.456 8.92 2.529z"/>
    <path fill="#f7931e" d="M183.45 34.189c-1.661 5.86-7.049 6.769-12.909 5.106-5.861-1.66-9.972-5.261-8.312-11.12 1.661-5.861 10.612 3.007 10.612 3.007s12.27-2.853 10.61 3.007z"/>
    <path fill="none" stroke="#00086b" stroke-width="5" d="M193.36 30.42c4.477-16.648 37.802 3.14 24.011 14.948"/>
    <path fill="#54d8c3" stroke="#000" d="M220.14 45.849c-10.996 14.357-20.88 25.875-20.88 25.875l-13.757-1.807-7.521-11.44 13.811-30.431c10.3-7.721 30.33 1.371 28.35 17.803z"/>
    <path fill="none" stroke="#754c24" stroke-linecap="round" stroke-width="4" d="M195.52 53.818c-1.43 2.336-3.131 4.644-4.614 7.024"/>
    <path fill="#754c24" d="m195.97152843 39.46919257 9.779934-2.2762947 2.276068 9.77896-9.779934 2.2762947zM205.04 55.86c-1.64 2.633-5.792 1.453-10.138-1.251-4.346-2.706-7.239-5.911-5.599-8.544 1.638-2.633 7.867 4.897 7.867 4.897s9.52 2.265 7.87 4.898z"/>
    <path fill="#f7931e" d="M210.22 50.868c-3.219 5.171-8.647 4.552-13.818 1.332-5.172-3.218-8.125-7.817-4.907-12.987 3.22-5.172 9.365 5.828 9.365 5.828s12.58.657 9.36 5.827z"/>
    <path fill="none" stroke="#00086b" stroke-width="5" d="M220.79 49.991c8.912-14.757 35.454 13.485 18.933 21.012"/>
    <path fill="#54d8c3" stroke="#000" d="M242.24 72.23c-14.542 10.75-27.229 19.081-27.229 19.081l-12.718-5.546-4.06-13.075 21.698-25.417c12.04-4.565 28.77 9.718 22.31 24.957z"/>
    <path fill="none" stroke="#754c24" stroke-linecap="round" stroke-width="4" d="M216.38 73.07c-2.021 1.849-4.295 3.595-6.379 5.472"/>
    <path fill="#754c24" d="m220.79657379 59.40701512 10.0279467.5211279-.521076 10.026948-10.0279467-.5211279zM224.97 77.671c-2.305 2.076-5.968-.208-9.395-4.01-3.427-3.804-5.319-7.685-3.014-9.761 2.303-2.077 6.204 6.884 6.204 6.884s8.51 4.811 6.2 6.887z"/>
    <path fill="#f7931e" d="M231.33 74.309c-4.524 4.078-9.569 1.979-13.646-2.547-4.078-4.524-5.643-9.761-1.119-13.838 4.526-4.079 7.385 8.194 7.385 8.194s11.92 4.114 7.39 8.191z"/>
    <path fill="none" stroke="#00086b" stroke-width="5" d="M241.72 76.391c12.65-11.712 30.333 22.776 12.373 25.434"/>
    <path fill="#54d8c3" stroke="#000" d="M256.18 103.7c-16.95 6.303-31.448 10.794-31.448 10.794l-10.685-8.852-.28-13.688 27.889-18.414c12.84-1.048 24.96 17.309 14.53 30.162z"/>
    <path fill="none" stroke="#754c24" stroke-linecap="round" stroke-width="4" d="M231.1 97.348c-2.455 1.217-5.123 2.265-7.645 3.491"/>
    <path fill="#754c24" d="m239.10943545 85.43203526 9.4907532 3.2773824-3.277056 9.489808-9.4907532-3.2773824zM238.08 104.15c-2.789 1.357-5.677-1.853-7.917-6.455-2.239-4.604-2.982-8.857-.192-10.213 2.788-1.358 4.055 8.333 4.055 8.333s6.85 6.975 4.06 8.335z"/>
    <path fill="#f7931e" d="M245.12 102.68c-5.477 2.666-9.743-.749-12.408-6.226-2.665-5.477-2.718-10.942 2.757-13.607 5.479-2.666 4.827 9.918 4.827 9.918s10.3 7.245 4.82 9.915z"/>
    <path fill="none" stroke="#00086b" stroke-width="5" d="M254.53 107.56c15.399-7.75 22.839 30.286 4.846 27.865"/>
    <path fill="#54d8c3" stroke="#000" d="M260.86 137.8c-18.032 1.363-33.207 1.663-33.207 1.663l-7.815-11.464 3.521-13.23 31.896-9.97c12.61 2.54 19.18 23.54 5.6 33z"/>
    <path fill="none" stroke="#754c24" stroke-linecap="round" stroke-width="4" d="M238.52 124.75c-2.696.489-5.55.758-8.313 1.237"/>
    <path fill="#754c24" d="m249.5034432 115.5175476 8.2115298 5.7775914-5.7775914 8.2115298-8.2115298-5.7775914zM243.34 133.22c-3.056.531-4.941-3.352-5.819-8.395-.877-5.044-.413-9.336 2.644-9.867 3.055-.533 1.588 9.13 1.588 9.13s4.65 8.61 1.59 9.14z"/>
    <path fill="#f7931e" d="M250.51 133.76c-6.001 1.044-9.155-3.417-10.199-9.419-1.044-6.001.419-11.267 6.418-12.312 6.003-1.044 1.892 10.868 1.892 10.868s7.89 9.81 1.89 10.86z"/>
    <path fill="none" stroke="#00086b" stroke-width="5" d="M258.2 141.05c16.944-3.183 13.56 35.427-3.061 28.118"/>
    <path fill="#54d8c3" stroke="#000" d="M255.91 171.87c-17.705-3.685-32.369-7.599-32.369-7.599l-4.335-13.18 7.048-11.738 33.41-.747c11.43 5.94 11.92 27.93-3.75 33.27z"/>
    <path fill="none" stroke="#754c24" stroke-linecap="round" stroke-width="4" d="M238.06 153.14c-2.727-.276-5.543-.809-8.33-1.113"/>
    <path fill="#754c24" d="m251.170145 147.3178884 6.2906865 7.8259554-7.8259554 6.2906865-6.2906865-7.8259554zM240.34 162.61c-3.083-.336-3.82-4.59-3.268-9.678.555-5.09 2.189-9.086 5.273-8.749 3.082.334-1.003 9.212-1.003 9.212s2.09 9.55-1 9.22z"/>
    <path fill="#f7931e" d="M247.09 165.11c-6.056-.658-7.851-5.819-7.192-11.875.659-6.056 3.523-10.71 9.577-10.053 6.057.659-1.192 10.967-1.192 10.967s4.85 11.61-1.2 10.95z"/>
    <path fill="none" stroke="#00086b" stroke-width="5" d="M252.46 174.25c17.163 1.635 3.218 37.797-10.728 26.171"/>
    <path fill="#54d8c3" stroke="#000" d="M241.72 203.23c-15.992-8.443-28.998-16.265-28.998-16.265l-.516-13.865 10.022-9.327 32.311 8.534c9.34 8.87 3.72 30.14-12.81 30.93z"/>
    <path fill="none" stroke="#754c24" stroke-linecap="round" stroke-width="4" d="M229.75 180.29c-2.543-1.021-5.102-2.313-7.695-3.377"/>
    <path fill="#754c24" d="m243.964369 178.325268 3.8778342 9.2618184-9.2618184 3.8778342-3.8778342-9.2618184zM229.33 190.02c-2.869-1.177-2.399-5.469-.459-10.204 1.942-4.737 4.619-8.125 7.489-6.946 2.869 1.174-3.515 8.573-3.515 8.573s-.64 9.76-3.51 8.58z"/>
    <path fill="#f7931e" d="M235.12 194.29c-5.637-2.31-5.932-7.766-3.622-13.402 2.311-5.637 6.352-9.315 11.986-7.008 5.637 2.311-4.183 10.208-4.183 10.208s1.44 12.51-4.19 10.2z"/>
    <path fill="none" stroke="#00086b" stroke-width="5" d="M237.74 204.56c16.039 6.323-7.375 37.21-17.556 22.177"/>
    <path fill="#54d8c3" stroke="#000" d="M219.4 229.43c-13.028-12.542-23.359-23.659-23.359-23.659l3.344-13.466 12.214-6.187 28.684 17.147c6.52 11.11-4.77 29.99-20.87 26.17z"/>
    <path fill="none" stroke="#754c24" stroke-linecap="round" stroke-width="4" d="M214.25 204.07c-2.16-1.686-4.262-3.635-6.459-5.376"/>
    <path fill="#754c24" d="m228.44039236 206.12514453 1.161628 9.972732-9.9737253 1.1617437-1.161628-9.972732zM211.15 213.31c-2.431-1.926-.791-5.92 2.385-9.933 3.179-4.014 6.688-6.527 9.12-4.601 2.432 1.923-5.751 7.265-5.751 7.265s-3.33 9.2-5.76 7.27z"/>
    <path fill="#f7931e" d="M215.53 219.02c-4.777-3.78-3.55-9.104.23-13.882 3.781-4.776 8.683-7.191 13.458-3.414 4.776 3.781-6.846 8.65-6.846 8.65s-2.07 12.42-6.84 8.64z"/>
    <path fill="none" stroke="#754c24" stroke-linecap="round" stroke-width="4" d="M80.077 161.46c2.042-1.001 10.026-4.649 12.124-5.659"/>
    <path fill="#754c24" d="m65.517 168.552 3.075-7.183 7.543 2.069-3.077 7.185zm9.207-11.882c2.319-1.117 4.516 1.157 6.127 4.494 1.61 3.337 2.023 6.471-.297 7.589-2.319 1.116-2.916-6.041-2.916-6.041s-5.233-4.92-2.914-6.04z"/>
    <path fill="#f7931e" d="M68.956 158.04c4.554-2.193 7.859.18 9.775 4.15 1.915 3.97 1.717 8.032-2.837 10.226-4.555 2.194-3.469-7.188-3.469-7.188s-8.025-5-3.469-7.19z"/>
    <path fill="none" stroke="#754c24" stroke-linecap="round" stroke-width="4" d="M75.725 145.18c2.235-.419 10.904-1.804 13.194-2.217"/>
    <path fill="#754c24" d="m59.8 148.126 4.881-6.102 6.717 4.008-4.883 6.102zm12.044-8.986c2.533-.457 4.043 2.321 4.706 5.967.661 3.646.223 6.776-2.312 7.234-2.533.456-1.197-6.601-1.197-6.601s-3.73-6.15-1.197-6.6z"/>
    <path fill="#f7931e" d="M65.92 138.91c4.975-.897 7.526 2.271 8.313 6.609.786 4.337-.49 8.199-5.464 9.098-4.976.898-1.424-7.854-1.424-7.854s-6.4-6.96-1.425-7.86z"/>
    <path fill="none" stroke="#754c24" stroke-linecap="round" stroke-width="4" d="M75.877 128.32c2.266.193 10.99 1.173 13.307 1.386"/>
    <path fill="#754c24" d="m59.743 126.916 6.333-4.579 5.403 5.656-6.335 4.577zm14.007-5.446c2.563.236 3.277 3.316 2.942 7.006-.336 3.69-1.594 6.59-4.159 6.354-2.563-.236.608-6.681.608-6.681s-1.954-6.92.609-6.68z"/>
    <path fill="#f7931e" d="M68.102 119.67c5.034.463 6.646 4.198 6.247 8.589-.4 4.389-2.661 7.771-7.694 7.309-5.035-.462.724-7.949.724-7.949s-4.312-8.41.723-7.95z"/>
    <path fill="none" stroke="#754c24" stroke-linecap="round" stroke-width="4" d="M80.522 112.12c2.132.791 10.278 4.064 12.455 4.888"/>
    <path fill="#754c24" d="m65.35 106.459 7.326-2.721 3.697 6.892-7.327 2.721zm14.954-1.509c2.407.912 2.272 4.071.965 7.538-1.309 3.466-3.295 5.925-5.705 5.014-2.407-.912 2.369-6.276 2.369-6.276s-.037-7.18 2.371-6.27z"/>
    <path fill="#f7931e" d="M75.34 101.71c4.728 1.79 5.285 5.82 3.727 9.944-1.558 4.123-4.639 6.778-9.366 4.99-4.729-1.79 2.819-7.467 2.819-7.467s-1.908-9.254 2.82-7.46z"/>
    <path fill="none" stroke="#754c24" stroke-linecap="round" stroke-width="4" d="M89.324 97.751c1.844 1.331 8.82 6.66 10.698 8.036"/>
    <path fill="#754c24" d="m76.215 88.242 7.786-.667 1.723 7.629-7.787.666zm14.815 2.534c2.077 1.521 1.104 4.53-1.082 7.521-2.187 2.991-4.758 4.831-6.836 3.309-2.076-1.521 3.958-5.416 3.958-5.416s1.883-6.94 3.96-5.418z"/>
    <path fill="#f7931e" d="M87.111 86.328c4.078 2.987 3.539 7.02.937 10.579-2.602 3.558-6.28 5.294-10.358 2.308-4.08-2.987 4.71-6.444 4.71-6.444s.632-9.43 4.711-6.443z"/>
    <path fill="none" stroke="#754c24" stroke-linecap="round" stroke-width="4" d="M101.64 86.25c1.422 1.775 6.722 8.773 8.164 10.6"/>
    <path fill="#754c24" d="m91.548 73.586 7.682 1.435-.376 7.812-7.683-1.437zm13.602 6.397c1.595 2.02-.146 4.66-3.05 6.959-2.906 2.299-5.875 3.385-7.471 1.364-1.595-2.021 5.26-4.162 5.26-4.162s3.661-6.182 5.261-4.161z"/>
    <path fill="#f7931e" d="M102.56 74.65c3.133 3.967 1.537 7.709-1.921 10.445-3.457 2.734-7.465 3.426-10.599-.541-3.134-3.968 6.26-4.953 6.26-4.953s3.125-8.918 6.259-4.951z"/>
    <path fill="none" stroke="#754c24" stroke-linecap="round" stroke-width="4" d="M116.59 78.454c.896 2.09 4.136 10.249 5.038 12.395"/>
    <path fill="#754c24" d="m110.238 63.555 7.019 3.434-2.447 7.428-7.02-3.436zm11.402 9.796c.998 2.373-1.384 4.452-4.798 5.893-3.414 1.44-6.565 1.694-7.564-.68-.998-2.373 6.18-2.607 6.18-2.607s5.18-4.979 6.18-2.606z"/>
    <path fill="#f7931e" d="M120.56 67.521c1.96 4.66-.577 7.84-4.639 9.553-4.062 1.712-8.108 1.309-10.07-3.351-1.961-4.661 7.354-3.102 7.354-3.102s5.4-7.761 7.36-3.1z"/>
    <path fill="none" stroke="#754c24" stroke-linecap="round" stroke-width="4" d="M133.07 74.93c.306 2.253 1.25 10.981 1.547 13.29"/>
    <path fill="#754c24" d="m130.927 58.877 5.847 5.184-4.341 6.505-5.848-5.185zM139.3 71.36c.328 2.553-2.523 3.921-6.197 4.398-3.675.477-6.779-.12-7.108-2.674-.328-2.553 6.652-.863 6.652-.863s6.33-3.414 6.66-.861z"/>
    <path fill="#f7931e" d="M139.82 65.456c.645 5.014-2.649 7.401-7.021 7.968-4.371.566-8.164-.903-8.81-5.917-.646-5.015 7.916-1.026 7.916-1.026s7.27-6.04 7.91-1.025z"/>
    <path fill="none" stroke="#754c24" stroke-linecap="round" stroke-width="4" d="M149.89 75.934c-.307 2.253-1.727 10.917-2.057 13.221"/>
    <path fill="#754c24" d="m152.113 59.893 4.252 6.556-5.921 5.11-4.251-6.558zm4.737 14.264c-.365 2.548-3.479 3.106-7.146 2.584-3.669-.521-6.501-1.925-6.137-4.474.365-2.547 6.642.944 6.642.944s7.01-1.602 6.65.946z"/>
    <path fill="#f7931e" d="M158.93 68.606c-.717 5.004-4.528 6.425-8.894 5.805-4.363-.622-7.626-3.05-6.91-8.054.716-5.006 7.901 1.124 7.901 1.124s8.62-3.879 7.9 1.125z"/>
    <path fill="none" stroke="#754c24" stroke-linecap="round" stroke-width="4" d="M165.84 81.393c-.897 2.09-4.578 10.059-5.512 12.192"/>
    <path fill="#754c24" d="m172.26 66.526 2.347 7.453-7.07 3.345-2.346-7.455zm.76 15.011c-1.032 2.358-4.182 2.064-7.577.583-3.396-1.481-5.751-3.59-4.719-5.95 1.031-2.357 6.148 2.683 6.148 2.683s7.18.326 6.15 2.684z"/>
    <path fill="#f7931e" d="M176.5 76.743c-2.026 4.631-6.079 4.983-10.12 3.22-4.039-1.764-6.535-4.975-4.51-9.606 2.026-4.633 7.314 3.192 7.314 3.192s9.35-1.438 7.32 3.194z"/>
    <path fill="none" stroke="#754c24" stroke-linecap="round" stroke-width="4" d="M179.74 90.909c-1.423 1.774-7.097 8.472-8.566 10.278"/>
    <path fill="#754c24" d="m189.904 78.297.274 7.81-7.707 1.335-.271-7.81zm-3.274 14.668c-1.624 1.997-4.581.873-7.458-1.461s-4.584-4.995-2.959-6.994c1.623-1.997 5.209 4.227 5.209 4.227s6.83 2.231 5.21 4.228z"/>
    <path fill="#f7931e" d="M191.27 89.276c-3.189 3.922-7.188 3.18-10.612.402-3.422-2.778-4.97-6.539-1.782-10.461 3.189-3.924 6.197 5.029 6.197 5.029s9.38 1.108 6.19 5.03z"/>
    <path fill="none" stroke="#754c24" stroke-linecap="round" stroke-width="4" d="M190.61 103.79c-1.845 1.331-9.101 6.271-10.999 7.619"/>
    <path fill="#754c24" d="m203.767 94.352-1.822 7.599-7.784-.771 1.825-7.599zm-7.077 13.258c-2.098 1.491-4.647-.381-6.797-3.399-2.149-3.018-3.084-6.038-.984-7.53 2.097-1.491 3.892 5.464 3.892 5.464s5.99 3.98 3.89 5.47z"/>
    <path fill="#f7931e" d="M202.15 105.3c-4.12 2.929-7.776 1.146-10.334-2.446-2.557-3.59-3.044-7.628 1.075-10.557 4.121-2.931 4.63 6.5 4.63 6.5s8.74 3.577 4.62 6.507z"/>
    <path fill="none" stroke="#754c24" stroke-linecap="round" stroke-width="4" d="M197.64 119.11c-2.133.79-10.444 3.614-12.634 4.406"/>
    <path fill="#754c24" d="m212.84 113.523-3.783 6.838-7.296-2.821 3.787-6.836zm-10.36 10.887c-2.42.877-4.377-1.608-5.644-5.09-1.266-3.482-1.36-6.642 1.062-7.519 2.419-.877 2.292 6.304 2.292 6.304s4.71 5.44 2.29 6.31z"/>
    <path fill="#f7931e" d="M208.36 123.64c-4.752 1.723-7.8-.972-9.306-5.116-1.506-4.143-.897-8.164 3.854-9.887 4.754-1.724 2.727 7.5 2.727 7.5s7.48 5.79 2.73 7.51z"/>
    <path fill="none" stroke="#754c24" stroke-linecap="round" stroke-width="4" d="M200.33 135.75c-2.267.192-11.03.694-13.352.874"/>
    <path fill="#754c24" d="m216.467 134.422-5.472 5.579-6.278-4.666 5.474-5.577zm-12.887 7.728c-2.565.198-3.788-2.719-4.079-6.413-.291-3.693.462-6.764 3.03-6.963 2.564-.2.525 6.688.525 6.688s3.08 6.48.52 6.68z"/>
    <path fill="#f7931e" d="M209.45 142.97c-5.039.392-7.257-3.02-7.602-7.415-.346-4.394 1.314-8.107 6.354-8.5 5.042-.393.625 7.956.625 7.956s5.67 7.56.63 7.95z"/>
    <path fill="none" stroke="#754c24" stroke-linecap="round" stroke-width="4" d="M198.47 152.5c-2.235-.42-10.815-2.275-13.1-2.722"/>
    <path fill="#754c24" d="m214.383 155.53-6.763 3.917-4.805-6.174 6.765-3.912zm-14.483 4.01c-2.525-.494-2.925-3.631-2.22-7.269.706-3.637 2.251-6.396 4.779-5.901 2.524.492-1.279 6.585-1.279 6.585s1.24 7.07-1.28 6.58z"/>
    <path fill="#f7931e" d="M205.34 161.9c-4.96-.968-6.188-4.847-5.346-9.175.84-4.326 3.431-7.462 8.392-6.495 4.964.968-1.521 7.835-1.521 7.835s3.44 8.81-1.52 7.84z"/>
    <path fill="none" stroke="#754c24" stroke-linecap="round" stroke-width="4" d="M192.22 168.15c-2.042-1.002-9.815-5.08-11.897-6.12"/>
    <path fill="#754c24" d="m206.74 175.316-7.563 1.97-2.983-7.233 7.564-1.965zm-15.03-.006c-2.302-1.15-1.85-4.279-.199-7.598 1.651-3.315 3.877-5.563 6.182-4.411 2.301 1.148-2.991 6.005-2.991 6.005s-.69 7.16-2.99 6.01z"/>
    <path fill="#f7931e" d="M196.32 179.04c-4.521-2.257-4.669-6.322-2.702-10.269 1.964-3.945 5.298-6.275 9.821-4.02 4.525 2.258-3.559 7.145-3.559 7.145s.96 9.4-3.56 7.14z"/>
    <path fill="#000063" d="M187.9 161.24c-2.524-.664-6.098-.38-8.892-.38-4.638 0-9.247.159-13.722-1.644-.662-.267-1.285-.845-1.77-.578-.117-.253-.93-.495-1.125-.711-.764-.847-1.168-1.23-2.157-1.817-.968-.575-6.298-2.146-6.604-2.01-.76-.252-6.55-2.469-7.023-2.789-3.598-2.428-8.086-7.289-8.319-11.949-.078-1.57.431-3.725-.791-3.758-1.222-.033-4.174 2.055-4.2 3.565-.367.396-.583.955-.509 1.692.393 3.928 2.398 8.131 5.366 11.25-.932.876-1.35 2.422-.3 3.684 2.427 2.918 4.065 6.353 6.834 9 2.775 2.654 6.913 4.003 10.436 5.311.279.104.538.142.786.15-5.883 5.708-16.721-8.78-21.193-12.22-1.278-.983-3.328.061-3.672 1.493-1.206 5.023 1.477 8.604 5.042 11.879 4.481 4.117 8.669 5.403 14.703 5.453.408.003.764-.075 1.068-.212 3.169.539 6.236-.554 8.936-4.473 1.3-.005 2.599.002 3.9.064 1.86.089 3.538.931 5.329 1.202-.537 1.718-.481 3.448-.33 5.2-.991 1.088-3.653 1.724-4.61 2.145-2.393 1.055-4.37 2.86-6.415 4.52-.384-.646-1.063-1.112-2.045-1.113-10.671-.009-20.452-1.523-28.81-8.731-3.849-3.319-6.87-8.312-8.451-13.607.083-.351.097-.737.005-1.159-.525-2.417.471-4.896-.035-7.356 1.025-.08 1.452-.771 1.702-1.813.366-1.526.574-3.096.589-4.665.013-1.363-1.147-2.5-2.5-2.5-1.373 0-2.487 1.138-2.5 2.5-.004.38-.021.724-.045 1.059-.792 1.06-.834-.398-1.084 1.315-.068.464-.723 1.432-.768 1.9-.415-.132-2.231-.35-2.768-.186-2.553.783-4.981.771-7.37 2.112-2.091 1.173-3.965 2.624-5.54 4.43-3.062 3.508-4.699 8.397-5.67 12.87-.091.418-.079.8.002 1.147-.203.74-.06 1.572.641 2.285 6.638 6.751 12.082 15.135 19.228 21.31.096.083.2.146.298.221.055 1.205.893 1.853 2.448 1.853.601 0 3.104.113 3.481-.169.989.4-.116 1.076.68 1.809-.233.473.219.893.417 1.555 1.073 3.604 2.389 7.368 2.923 11.134.185 1.036.123 1.434.417 2.187.45 1.15-.069 2.354.55 3.431.25.435.623.762 1.05.97.52 1.255 2.58 2.755 2.627 4.171.731-3.729.328-1.526.951-4.752.358-1.604.601-2.92 1.13-4.708.247-.836.619-2.466 1.062-3.987.623-1.136 1.548-2.26 1.572-2.278 2.048-2.55 4.028 5.353 4.486 6.416 1.598 3.709 4.22 6.979 6.846 10.008.445.514.953.75 1.458.799.522.794 1.45 1.31 2.641 1.012.222-.056.444-.111.667-.167 1.028-.258 1.897-1.329 1.835-2.411-.241-4.183-.861-8.306-.5-12.5.08-.686.143-1.373.188-2.063.071-.406.807-2.835.879-3.241 1.537.057 2.593 1.285 4.131 1.39.684.046 1.794.127 2.376.328 1.914.263 2.863.549 4.762.83 1.348.199 2.989.166 3.384-1.266.046-.167-.241-.825-.235-1.007.072-.487-.049-1-.325-1.566-2.053-4.21-3.775-7.138-5.977-11.319 1.711-1.63 4.216-3.584 5.916-4.858 1.612-1.209 3.234-1.863 4.927-2.915 1.251-.777 2.692-1.254 3.687-1.955.802-.43 1.264-1.426 1.175-2.357-.002-.019.264-3.552.304-3.657.768-.146 1.209-.28 1.976-.432.135-.026 1.759-.075 1.88-.127 1.475.787 1.602 2.379 1.914 3.032 1.082 2.261 2.385 4.471 4.417 5.59 4.931 2.714 6.753-5.367 6.679-8.961-.16-5.35-.97-11.69-4.49-13.86zm-59.2 35.26c-1.447-.496-2.798-1.024-4.203-1.291-.007-.544-.183-1.103-.614-1.615-3.213-3.824-4.458-8.452-5.533-13.221-.266-1.179-.537-2.347-.813-3.511.611.89 1.293 1.736 2.026 2.542-.317.411-.5.911-.448 1.457.886 9.2 8.963 14.597 17.564 15.521.085.335.168.666.255 1.002-2.79.03-5.6.01-8.24-.89z"/>
    <path fill="#f7931e" d="M159.89 262.13c-.24-1.57-.365-3.272-1.08-4.653-.226-.435-.55-.805-.925-1.126-.289.01-.582-.029-.855-.172-.026-.014-.036-.021-.054-.029-.022-.005-.047-.011-.089-.022-.093-.027-.187-.053-.281-.075-.19-.046-.383-.085-.571-.137-.436-.119-.885-.275-1.248-.548-.175-.131-.327-.284-.45-.451-.206-.009-.408-.005-.603.021-1.085-.806-2.777-.874-3.7.608-1.221 1.963-2.813 3.747-4.412 5.46-.393 1.73-1.866 3.113-2.744 4.611-.305.521-.625 1.14-.914 1.804.022.267-.017.55-.155.841-.491 1.032-.699 1.984-.727 3.025 1.32-.273 2.687-.818 3.505-1.938.256-.351.601-.608.982-.718.368-.459.726-.934.956-1.432.272-.588.456-1.188.841-1.718.435-.599 1.081-.761 1.663-.646.104-.128.204-.259.31-.386.378.247.819.389 1.285.415.084.236.147.479.198.726.471.226.835.67.856 1.341.048 1.509-.043 3.016-.246 4.51-.006.237-.006.475-.013.712.035.016.07.031.108.042.171.047.35.069.529.075.005-.018.005-.035.012-.053.176-.478.399-.92.64-1.354.002-.017.012-.038.013-.054.049-.59.352-1.108.831-1.376.204-.351.378-.72.397-1.112.034-.709.451-1.16.966-1.371.009-.038.017-.077.028-.115-.001-.003-.002-.007-.004-.01.007-.007.011-.016.018-.021.096-.277.264-.528.486-.716.064-.136.134-.27.174-.416.034.028.063.063.098.089-.002.05-.003.101-.005.15.754-.395 1.62-.096 2.077.595.048.073.068.153.107.229.183.237.298.546.303.926.007.493-.061.979-.134 1.464.041.008.081.017.124.017.308 0 .592-.077.863-.184.086-.396.162-.795.264-1.188.073-.285.205-.504.366-.676.115-1.306.103-2.621-.065-3.926-.09-.42.03-.76.25-1.01zm-36.09 10.16c-.04-.52.113-1.009.453-1.354.011-.102.027-.204.036-.306.012-.314.008-.631.007-.952 0-.146.019-.278.049-.403.011-1.256-.076-2.517-.097-3.797-.038-2.223.42-4.51.078-6.718-.034-.217-.042-.424-.031-.624-.167-.123-.342-.233-.531-.317-.03-.073-.053-.149-.09-.222-.125-.246-.114-1.041-.169-1.527-.107-.958-.31-1.882-.891-2.676-.721-.984-1.635-1.483-2.854-1.581-.229-.019-.275-.014-.276-.007-.022-.008-.086-.026-.226-.06-.35-.572-.82-.89-1.322-1.042-.282.417-.772.668-1.32.73.258-.029-.292.097-.274.091-.115.038-.229.078-.342.122-.226.089-.45.186-.678.269-.397.144-.811.224-1.231.256-1.881.839-3.423 2.311-4.55 4.042.054.316-.002.666-.233 1.023-.176.272-.452.779-.781 1.442.084.266.082.576-.047.924-.894 2.399-1.73 4.368-2.04 6.958-.263 2.195-1.82 4.117-.026 6.069.364-.12.646-.331.878-.597.146-.197.284-.407.407-.623.793-1.697.428-4.567.875-5.969.549-1.724.782-3.344 2.39-4.394.527-.345 1.042-.319 1.451-.09.152-.124.292-.262.403-.43.168.213.376.388.599.543.647.126 1.194.615 1.151 1.478-.078 1.579-.084 3.149-.06 4.729.013.82.01 2.181.538 2.877.182.24.72.408 1.028.54.067-.078.145-.155.238-.228.554-.431.819-1.256.956-2.135.003-.022.005-.047.01-.069.129-.873.138-1.789.179-2.416.097-1.479-.171-2.938-.069-4.396.055-.785.57-1.261 1.168-1.434-.005-.028-.005-.061-.011-.088.207-.095.403-.205.574-.344.05.124.108.248.166.372.697.086 1.305.579 1.24 1.493-.005.067-.002.134-.006.201.173.711.405 1.415.479 2.227.269.197.472.471.532.811.125.714.382 1.369.458 2.099.068.658.103 1.313.073 1.974-.007.161-.04.306-.083.441.522.679.683 1.618.47 2.459.324.186.589.435.789.729h.289c.096 0 .189.016.282.029-.01-.02-.02-.07-.02-.11z"/>
    <path fill="#42210b" d="M143.05 267.76c-.459 0-.841.114-1.169.288-.023.071-.043.143-.077.215-.491 1.032-.699 1.985-.728 3.028 1.321-.273 2.688-.822 3.506-1.94.144-.196.316-.359.506-.488-.39-.64-1.06-1.1-2.04-1.1zm8.42 1.43c-.006 1.053-.026 2.106-.054 3.159-.001.023-.001.034-.001.055.002.001.005.001.007.002.198.044.385.104.568.177.335-.606.691-1.299.73-1.771.037-.445.219-.852.512-1.141-.402-.444-.99-.741-1.771-.741-.006 0-.01.002-.016.002 0 .08.02.17.02.26zm7.11-2.38c-.219 0-.419.027-.607.07.128.215.212.472.216.782.016 1.144-.349 2.246-.334 3.388.003.23-.039.431-.109.608.221.074.456.13.724.141.259-1.348.493-2.699.837-4.028.078-.303.222-.531.398-.707-.32-.15-.69-.25-1.13-.25zm-34.78 5.48c-.04-.528.117-1.027.469-1.372.031-.409.028-.821.026-1.239 0-.147.02-.281.051-.408-.395-.361-.934-.594-1.626-.594-.316 0-.591.06-.845.146-.04 1.313-.148 3.125 1.335 3.656.202.072.368.174.508.293.033-.066.063-.134.096-.201-.02-.11-.03-.2-.03-.29zm-7.6-1.16c.234-.395.4-.804.59-1.236.123-.278.255-.539.416-.798.031-.048.058-.098.087-.146-.104-.45-.016-.836.18-1.143-.38-.659-1.062-1.141-2.059-1.141-.512 0-.934.136-1.283.349.186.239.299.553.293.944-.009.584-.127 1.288-.034 1.903.285.058.55.191.745.424.286.341.637.523.999.778.02.03.04.06.06.08zm-10.86-1.62c-.117.844-.468 3.018.771 3.271.948.194 1.819-1.8 2.136-2.434.018-.036.041-.063.061-.096-.328-.822-1.062-1.466-2.215-1.466-.276 0-.519.048-.748.114.02.21.02.41-.01.62z"/>
    <path fill="#3ca39c" stroke="#000" stroke-width=".25" d="M169.12 171.33c-2.52 1.525-10.267-2.648-10.267 2.316 0 .529-.666.781-1.038 1.105-.614-.256-1.339-.277-2.091.105-2.209 1.123-5.224.086-7.556-.148-2.438-.246-4.806-.186-7.197-.494-2.996-1.4-5.53-3.629-7.286-6.477-1.403-2.273-1.752-4.979-1.802-7.59-.06-3.162.708-2.447 2.714-.846 2.591 2.066 4.42 4.873 7.13 6.824 3.555 2.561 7.063 4.942 11.214 6.327 3.068 1.023 14.178-8.325 1.833-5.325-2.589.629-5.006-1.893-7.316-3.227-.173-.416-.459-.805-.903-1.119-10.815-7.66-8.145-22.783-8.211-34.67.225-.057.174-.396.355-.505-.016-1.22.086-2.46.103-3.687.002-.189.027-3.399.06-3.567-.372-.267-.845 1.699-1.428 1.699-.104 0-.426-.536-.524-.438-.428-.421-.753.681-1.393.765-2.906.384-4.919 1.253-6.377 3.904-.928 1.687-1.102 3.711-1.896 5.459-1.08 2.377-3.462 3.761-5.639 4.97-.059.033-.103.074-.157.109-.621-.301-1.47-.399-2.144.275-1.817 1.817-3.294 3.582-3.179 6.47.054 1.34.758 2.449 1.324 3.66 1.437 3.072 1.438 5.799 1.44 9.139.008 8.65 1.553 15.986 8.799 21.461 6.34 4.789 13.079 5.982 20.739 6.912 6.624.805 14.927 2.453 19.828-2.865 11.38-12.3 8.9-15.37.89-10.53zm-61.88-14.58c-5.902 3.461-9.013 9.711-6.31 16.975.668 1.797 5.676 7.516 2.491.364-2.294-6.167-.097-11.715 5.023-15.218 4.26 1.55 1.49-3.69-1.2-2.11z"/>
    <path fill="#3ca39c" stroke="#000" stroke-width=".25" d="M113.39 179.84c-1.411-4.54-6.556-15.798-.769-16.942 1.343-.266.844-3.36-2.121-2.121-6.803 2.843-3.683 9.166.457 19.401 2.1 1.48 3 1.51 2.43-.34zm21.55 14c-4.289.33-7.896-1.87-10.884-5.018-2.833-2.985-3.15-7.381-4.149-11.165-.432-1.639-.975-4.154-2.217-3.721-1.119.391-3.39 3.967-2.604 5.051 3.223 4.444 2.222 9.984 6.148 14.121 3.583 3.775 8.685 5.259 13.706 5.731 3.2.3 8.7-5.67-.01-5z"/>
    <path fill="#afe7e6" d="M141.96 104.34c-1.965-1.965-7.419 2.569-9.27.719-5.287-5.287-2.488-1.047-3.535 0-.055.055-.098.123-.147.184.337.446.547.992.547 1.584v1.15c0 .281-.058.548-.142.805.206.151.15.562.357.709-.181.341-1.868 12.129-2.133 12.353-.813 2.596-1.388 5.387-3.045 7.601-.28.374-.622.68-.996.908-.245.515-.556.932-.989 1.25-.975 2.034-2.295 3.754-3.797 5.472-.037.042-.083.071-.123.11.225.07.465.121.736.127 2.783.063 4.82.056 7.039-1.758 2.381-1.947 2.573-5.759 3.336-8.463.726-2.573 6.939-1.542 8.393-4.47 1.281-2.579 1.262-5.276 1.853-8.038.129-.603.054-1.138-.153-1.589.98-1.06 3.39-7.32 2.06-8.65z"/>
    <path fill="#000063" stroke="#000" d="m140.2881 67.835337-4.20089 3.203239-4.60367-3.476017-4.95064 7.306882 4.41945 4.931612 1.17434 7.76273 5.04156.738596 5.25115-10.598831 5.15787-3.391296-7.28917-6.476915zm-4.40111 7.214847c1.48162 1.683782.93217 5.678312-.65177 7.397255-1.71766-2.860204-.76967-5.022944.65177-7.397255z"/>
    <path fill="#fff" d="M143.63 95.292c-.493-.485-.804-1.155-.804-1.887v-.192c0-.208.031-.41.079-.606-.678-1.736-1.964-2.936-3.256-4.228-3.216-3.216-8.607-2.747-11.289-.041-.136.011-.354.547-.481.582-.625.172-1.167.59-1.494 1.149-.372.635-.353 1.228-.252 1.926 0 .002.001.005.001.008-.021.05-.044.1-.063.149-.111.295-.108.625-.138.937-.036.365.043.711.193 1.027-.235.397-.562.702-.963 1.008-.305.232-.674.365-1.059.445-.178.245-.443.445-.806.559-.47.147-.931.32-1.392.496-.028.15-.541.07-.545.226-1.376.229-2.229.878-3.413 1.634-1.083.692-.081 2.424 1.01 1.727.041-.026.084-.044.125-.069.143.105.307.188.521.206 1.24.103 2.405-.13 3.532-.531.054.041.114.072.171.108.08-.081.166-.158.259-.227.224-.166.495-.257.757-.349.325-.114.663-.08.967.047.099-.021.2-.033.303-.034.346-.005.687.015 1.025.064.216-.031.42-.024.607.104.593-.15 1.245 1.085 1 .485.546 1.337.159 1.509 1.101 2.76 2.048 2.722 4.234 4.75 8.123 6.064 1.55.524 3.327.255 4.105-1.076 1.8-3.08 2.26-7.962 2.07-12.468zM127.04 220.07c-.362-.579-.771-1.127-1.235-1.73-.549-.715-1.293-1.017-2.032-1.037.023.151.045.304.044.472-.01 1.726-.183 3.422-.424 5.129-.034.238-.118.453-.233.65-.006.112-.003.221-.023.337-1.436 8.584-1.709 16.952-4.387 25.296-.084.263-.204.485-.336.688-.001.132-.012.266-.01.396.045 3.222 5.045 3.226 5 0-.031-2.216.518-4.16 1.227-6.244.692-2.034.435-4.304.804-6.397.905-5.128 2.121-10.219 2.611-15.47.1-1.05-.35-1.74-1-2.1zm26.62 33.52c-.721-7.302-2.086-14.512-2.23-21.86-.011-.554.129-1.008.354-1.383-.049-.295-.097-.593-.145-.887-.136-.218-.248-.451-.298-.715-.428-2.249-.127-4.47-.211-6.715-.055.052-.111.09-.164.148-.788.868-1.543 1.72-2.576 2.293-.397.22-1.364.277-1.632.095-.508-.348-1.009-.47-1.471-.431.443.475.724 1.1.709 1.783-.017.778.036.998.218 1.76.147.614.299 1.227.419 1.848.006.032.006.063.011.096.01.001.02.003.029.003-.001.152.004.308.03.47.099.601.197 1.213.297 1.822.212.255.391.561.51.935 1.125 3.52 1.354 7.293 2.012 10.923.273 1.511.296 3.09.338 4.655.651 1.719.829 3.591.597 5.452-.034.273-.112.523-.211.761 1.034.893 2.782.835 3.655-.171-.13-.25-.22-.54-.26-.87z"/>
    <path fill="#fff" d="M133.92 91.027c-.1.044-.15.073 0 0z"/>
    <path fill="#f7931e" d="M128.39 99.515c-.043-.076-.087-.151-.131-.226-.317-1.324-1.235-2.427-2.307-3.265-.124-.097-.256-.174-.392-.241-.248-.184-.562-.258-.877-.241-.137-.002-.277.009-.425.049-.238.065-.463.211-.652.398-.072.006-.141.011-.215.017-.627.05-1.046.408-1.264.858-1.074.426-2.172.773-3.329.735-1.936-.063-1.93 2.938 0 3 1.997.064 3.772-.727 5.58-1.447.108.165.221.327.336.487.252-.173.556-.276.88-.28.506-.007 1.005-.004 1.495.149.75.235 1.237.956 1.13 1.729.39-.47.45-1.14.16-1.725z"/>
    <path fill="#ff9c9c" stroke="#000" d="M115.16 197.51c-3.667 5.667-27.708 31.514-32.374 33.681-6.333 3.834-30.333 1.778-22.833-26 11.833-19.333 30.939-29.665 33.273-31.999 4.251 4.25 21.934 24.32 21.934 24.32z"/>
    <path fill="none" stroke="#745c40" d="M76.083 223.66c-2.331 0-5.397-.751-7.011-2.858-1.78-2.324-2.035-6.567-.743-12.028 7.001-10.922 23.275-25.141 29.282-29.218 3.596 3.857 8.269 8.939 12.314 13.358-7.231 7.839-27.671 28.016-31.148 30.216l-.229.105-.255.154c-.277.1-1.045.27-2.205.27z"/>
    <path fill="none" stroke="#745c40" d="M76.083 221.66c-1.769 0-4.251-.543-5.423-2.074-1.344-1.755-1.509-5.396-.461-10.021 6.351-9.728 20.279-22.304 27.143-27.364 3.212 3.458 6.905 7.476 9.861 10.701-8.507 9.037-26.188 26.313-29.396 28.473l-.198.092-.109.065c-.226.04-.705.12-1.414.12z"/>
    <path fill="none" stroke="#745c40" d="M76.083 219.66c-1.415 0-3.187-.443-3.835-1.29-.692-.903-1.138-3.535-.176-8.013 5.633-8.464 17.556-19.673 25.034-25.47 2.439 2.633 5.055 5.477 7.363 7.992-9.196 9.64-24.564 24.522-27.637 26.737-.176.02-.426.04-.75.04z"/>
    <path fill="none" stroke="#745c40" d="M76.083 217.66c-1.113 0-2.075-.353-2.278-.541-.183-.305-.624-2.157.145-5.971 5.328-7.847 16.056-17.974 22.945-23.543 1.615 1.747 3.269 3.545 4.83 5.244-8.775 9.099-22.032 21.934-25.627 24.811h-.01z"/>
    <path fill="none" stroke="#745c40" d="M75.529 215.54c-.041-.69-.017-1.858.305-3.596 4.601-6.631 13.637-15.547 20.872-21.588.76.823 1.521 1.65 2.269 2.464-8.098 8.33-19.372 19.25-23.446 22.73z"/>
    <path fill="none" stroke="#000" d="M117.15 99.331c0 2.841 8.852-1.375 10.841.613 1.601 1.601 4.034 20.642-5.114 32.085-9.148 11.443-6.445 10.808-6.445 14.146 0 3.338-1.669 3.338-1.669 5.007-3.894 0-18.834-.715-21.537 22.014 21.775 24.159 21.298 23.683 21.934 24.318 2.305-1.033 2.384-.397 4.132-.397 1.351 2.543 4.769 12.318 4.769 19.312 0 6.994-3.021 23.839-5.086 33.375-3.017 4.427-9.378-1.748-13.749 21.219.516 1.788.995 2.163 2.305 0 1.349-2.228-.506-11.348 6.96-9.827.214 5.617-.369 6.552.415 8.671 1.383 1.987 1.567.202 2.083-.91 1.033-5.165-.821-8.952 1.881-8.952 1.659-.646 3.443 5.218 3.443 10.939.219 1.848 2.066 2.86 2.066-2.385 0-5.245.238-13.589-2.066-15.894 1.589-4.133 6.33-34.491 7.218-37.034.888-2.543 1.365-9.695 4.544-9.695 3.259 3.259 3.975 13.192 11.444 17.802 1.43 4.609 5.165 21.378 5.165 31.073-6.119 8.186-9.298 12.318-9.298 16.609 4.77-2.066 4.608-4.769 6.675-6.835 5.246 0 3.339 3.169 3.339 7.778 1.112.794 1.826-4.041 4.449-6.663 3.497.477 2.226-.479 2.226 6.663 2.066-4.281 2.384-13.023 0-15.407-2.384-2.384-2.384-.317-4.45-2.384 0-3.338-4.929-41.324-2.305-50.146 5.404 2.066 1.849.735 7.073 1.669 4.224.755 5.801 1.828 7.629 0 0-4.45-5.882-11.92-6.676-14.305 2.464-2.464 10.49-8.425 13.828-9.378 3.338-.953 1.192-5.006 2.543-6.357 5.483-1.191 3.178-1.275 6.994 5.404 1.003 1.756-.08-.397 3.496 3.179 3.765 0 4.29-1.271 5.404-4.609 1.711-5.126.222-19.07-4.927-19.07-24.478 0-23.224-2.399-26.385-4.927-3.161-2.528-18.517-1.3-21.514-15.521-.5-2.373-1-24.794 2.122-29.302 3.656-6.675 3.456-17.438.545-21.139-2.646-3.364-7.432-6.659-14.055-.954-2.556 2.202-.189 4.609-1.779 6.199-2.6.574-8.45 2.943-8.45 4.035z"/>
    <path d="M134.08 93.475c-.192-.329-.515-.467-.853-.466.029-.149.035-.301-.005-.445-.152-.552-.697-.808-1.23-.699-1.104.226-2.022.705-2.113 1.94-.073 1.002.687 1.428 1.567 1.544.806.107 1.559-.163 2.274-.507.49-.235.62-.926.36-1.367z"/>
    <path fill="#ff9c9c" stroke="#000" d="M173.97 176.03c5.285 3.485 29.384 26.332 31.406 30.768 3.576 6.019 1.659 28.826-24.244 21.699-18.028-11.247-27.663-29.404-29.839-31.62 3.95-4.04 22.67-20.85 22.67-20.85z"/>
    <path fill="none" stroke="#745c40" d="M202.31 215.19c.059 2.331-.616 5.415-2.683 7.08-2.279 1.838-6.515 2.198-12.007 1.042-11.092-6.729-25.711-22.644-29.936-28.548 3.767-3.69 8.731-8.488 13.048-12.643 8.017 7.035 28.694 26.968 30.98 30.389l.111.226.16.252c.11.27.3 1.04.33 2.2z"/>
    <path fill="none" stroke="#745c40" d="M200.31 215.24c.044 1.769-.438 4.264-1.938 5.474-1.721 1.387-5.356 1.642-10.006.71-9.883-6.107-22.801-19.718-28.03-26.454 3.377-3.297 7.302-7.089 10.452-10.124 9.246 8.279 26.955 25.525 29.194 28.679l.097.196.068.106c.06.21.15.69.17 1.4z"/>
    <path fill="none" stroke="#745c40" d="M198.31 215.29c.035 1.415-.364 3.197-1.194 3.866-.886.714-3.506 1.226-8.006.375-8.602-5.421-20.104-17.062-26.084-24.394 2.571-2.503 5.35-5.188 7.807-7.559 9.865 8.954 25.125 23.948 27.416 26.965.02.15.04.4.05.73z"/>
    <path fill="none" stroke="#745c40" d="M196.31 215.34c.028 1.112-.301 2.083-.483 2.29-.301.19-2.142.678-5.973.004-7.977-5.131-18.367-15.604-24.106-22.353 1.707-1.658 3.463-3.356 5.123-4.959 9.313 8.547 22.474 21.479 25.439 25.003v.02z"/>
    <path fill="none" stroke="#745c40" d="M194.2 215.94c-.689.059-1.857.063-3.602-.216-6.743-4.434-15.881-13.246-22.101-20.329.805-.78 1.612-1.561 2.407-2.329 8.51 7.9 19.71 18.9 23.29 22.88z"/>
  </g>
</svg>
